<svg id="Layer_1" data-name="Layer 1" xmlns="http://www.w3.org/2000/svg" width="483.12" height="248.51" viewBox="0 0 483.12 248.51">
  <defs>
    <style>
      .cls-1 {
        fill: #e3ba79;
      }

      .cls-2 {
        fill: #ccc;
      }
    </style>
  </defs>
  <title>bc-flat</title>
  <g>
    <path class="cls-1" d="M327,273.34h9.71V186H327v-1.77h20.56V231.1h0.25a18.43,18.43,0,0,1,6.05-8.32q4.29-3.41,11.22-3.4a23,23,0,0,1,10.21,2.33,29,29,0,0,1,14.25,15.2,28.6,28.6,0,0,1-.06,21.88,31.09,31.09,0,0,1-6,9.27,29.33,29.33,0,0,1-8.76,6.43,24,24,0,0,1-10.53,2.4,16.41,16.41,0,0,1-7.25-1.45A17.37,17.37,0,0,1,352,272a15.47,15.47,0,0,1-3-4.16,33.92,33.92,0,0,1-1.51-3.66h-0.25v11H327v-1.77ZM379,246.23a77.43,77.43,0,0,0-.63-10.4,26.55,26.55,0,0,0-2.21-7.88,11.8,11.8,0,0,0-4.41-5,13.53,13.53,0,0,0-7.25-1.77,16.06,16.06,0,0,0-7.69,1.64,14.93,14.93,0,0,0-4.92,4.16,15.61,15.61,0,0,0-2.21,3.78,24.31,24.31,0,0,0-1.32,4.79,50.74,50.74,0,0,0-.69,6.37q-0.19,3.59-.19,8.51a60.46,60.46,0,0,0,.63,8.58,26.5,26.5,0,0,0,2.4,8,15.32,15.32,0,0,0,5,5.86,17.37,17.37,0,0,0,16.71.25,12.17,12.17,0,0,0,4.54-5.8,30.47,30.47,0,0,0,1.89-9.14Q379,252.79,379,246.23Z" transform="translate(-147 -183.94)"/>
    <path class="cls-1" d="M399.08,273.34h9.71V222.78h-9.71V221h20.3v12.74h0.25a25.56,25.56,0,0,1,1.64-4.29,18.72,18.72,0,0,1,3.15-4.6,18,18,0,0,1,4.86-3.72,14.43,14.43,0,0,1,6.87-1.51,12.42,12.42,0,0,1,5,.95,10.93,10.93,0,0,1,3.53,2.4,8.84,8.84,0,0,1,2,3.34,11.91,11.91,0,0,1,.63,3.78q0,4.16-1.89,5.55a7.25,7.25,0,0,1-4.41,1.39q-5.55,0-5.55-3.53a5.43,5.43,0,0,1,.25-1.83c0.17-.46.36-0.92,0.57-1.39a11.67,11.67,0,0,0,.57-1.58,9.68,9.68,0,0,0,.25-2.52q0-4-4.41-4a7.81,7.81,0,0,0-4.29,1.51,15.8,15.8,0,0,0-4.22,4.41,27.73,27.73,0,0,0-3.28,7,30.55,30.55,0,0,0-1.32,9.39v28.88h11v1.77H399.08v-1.77Z" transform="translate(-147 -183.94)"/>
    <path class="cls-1" d="M507.28,273.72a17.29,17.29,0,0,1-3.91,2.21,14.44,14.44,0,0,1-5.55.95q-6.05,0-8.76-2.59a13.71,13.71,0,0,1-3.72-7.25h-0.25q-0.51,1.14-1.39,2.84a11.29,11.29,0,0,1-2.71,3.28,15,15,0,0,1-4.85,2.65,23.41,23.41,0,0,1-7.69,1.07,24.36,24.36,0,0,1-8.45-1.2,13.74,13.74,0,0,1-4.92-3,8.57,8.57,0,0,1-2.33-4,16.49,16.49,0,0,1-.57-4.1,12.55,12.55,0,0,1,1.77-7.06,13.09,13.09,0,0,1,4.6-4.22,30.54,30.54,0,0,1,6.3-2.58q3.47-1,7-2.14,4.16-1.39,6.87-2.4a12.17,12.17,0,0,0,4.22-2.46,7.54,7.54,0,0,0,2.08-3.66,25.07,25.07,0,0,0,.57-6,34.93,34.93,0,0,0-.38-5.42,11.51,11.51,0,0,0-1.39-4.1,6.45,6.45,0,0,0-2.9-2.59,12.1,12.1,0,0,0-5-.88,14.5,14.5,0,0,0-6.87,1.45,5,5,0,0,0-2.71,4.73,23.49,23.49,0,0,0,.38,4.22,19.19,19.19,0,0,1,.38,3.09,3.93,3.93,0,0,1-1.26,3,5.11,5.11,0,0,1-3.66,1.2q-4.16,0-5.17-1.51a6.91,6.91,0,0,1-1-3.91,11.69,11.69,0,0,1,1.26-5.3,13.34,13.34,0,0,1,3.72-4.48,18.51,18.51,0,0,1,6.18-3.09,29.16,29.16,0,0,1,8.51-1.13,28.17,28.17,0,0,1,9.71,1.45,16.81,16.81,0,0,1,6.31,3.91,14.24,14.24,0,0,1,3.41,5.55,20.81,20.81,0,0,1,1,6.49v31.4q0,3.66,1.13,4.92a4.18,4.18,0,0,0,3.28,1.26,9.15,9.15,0,0,0,2.9-.5,10.59,10.59,0,0,0,2.9-1.51Zm-22.07-29.51H485q-0.25,1.64-4.16,3.28l-9.46,3.78a13.79,13.79,0,0,0-6.18,4.6,12.25,12.25,0,0,0-2.14,7.38,21.21,21.21,0,0,0,.38,3.91,10,10,0,0,0,1.39,3.59,7.67,7.67,0,0,0,2.84,2.58,9.72,9.72,0,0,0,4.73,1,11.73,11.73,0,0,0,6.75-1.77,11.55,11.55,0,0,0,3.91-4.41,18.63,18.63,0,0,0,1.77-5.74,40,40,0,0,0,.44-5.61V244.21Z" transform="translate(-147 -183.94)"/>
    <path class="cls-1" d="M514.72,257.46h1.39a46.82,46.82,0,0,0,2.27,6.12,21.62,21.62,0,0,0,3.72,5.67,18.3,18.3,0,0,0,5.74,4.22,18.75,18.75,0,0,0,8.2,1.64,11.37,11.37,0,0,0,7.19-2.46q3.15-2.46,3.15-8,0-4.79-2.46-6.75a19.27,19.27,0,0,0-5.74-3.09l-9.84-3.4q-1.89-.63-4.1-1.58a14.85,14.85,0,0,1-4.1-2.65,12.92,12.92,0,0,1-3.09-4.35,16.6,16.6,0,0,1-1.2-6.81,15.54,15.54,0,0,1,1.39-6.56,16.72,16.72,0,0,1,9.52-8.83,20.39,20.39,0,0,1,7.25-1.26,18.47,18.47,0,0,1,4.48.44q1.7,0.44,3,.88t2.27,0.88a5.92,5.92,0,0,0,2.4.44,2.2,2.2,0,0,0,2-1h1.39v14.38h-1.39a55,55,0,0,0-2-5.36,21.48,21.48,0,0,0-2.71-4.6,11,11,0,0,0-3.91-3.15,12.41,12.41,0,0,0-5.49-1.14q-6.05,0-9.4,2.71a8.86,8.86,0,0,0-3.34,7.25,7.1,7.1,0,0,0,2.84,6.12,29.7,29.7,0,0,0,8.39,3.85l9.21,3a26.58,26.58,0,0,1,9.71,5.55A12.17,12.17,0,0,1,555.2,259a17.7,17.7,0,0,1-1.32,6.68,16.22,16.22,0,0,1-3.91,5.74,19.93,19.93,0,0,1-6.31,4,22.44,22.44,0,0,1-8.51,1.51,21.61,21.61,0,0,1-5.11-.57q-2.33-.57-4.29-1.2t-3.59-1.2a9.32,9.32,0,0,0-3-.57,3,3,0,0,0-2,.57,5.24,5.24,0,0,0-1,1.2h-1.39V257.46Z" transform="translate(-147 -183.94)"/>
    <path class="cls-1" d="M565.92,257.46h1.39a46.82,46.82,0,0,0,2.27,6.12,21.62,21.62,0,0,0,3.72,5.67,18.3,18.3,0,0,0,5.74,4.22,18.75,18.75,0,0,0,8.2,1.64,11.37,11.37,0,0,0,7.19-2.46q3.15-2.46,3.15-8,0-4.79-2.46-6.75a19.27,19.27,0,0,0-5.74-3.09l-9.84-3.4q-1.89-.63-4.1-1.58a14.85,14.85,0,0,1-4.1-2.65,12.92,12.92,0,0,1-3.09-4.35,16.6,16.6,0,0,1-1.2-6.81,15.54,15.54,0,0,1,1.39-6.56,16.72,16.72,0,0,1,9.52-8.83,20.39,20.39,0,0,1,7.25-1.26,18.47,18.47,0,0,1,4.48.44q1.7,0.44,3,.88t2.27,0.88a5.92,5.92,0,0,0,2.4.44,2.2,2.2,0,0,0,2-1h1.39v14.38h-1.39a55,55,0,0,0-2-5.36,21.48,21.48,0,0,0-2.71-4.6,11,11,0,0,0-3.91-3.15,12.41,12.41,0,0,0-5.49-1.14q-6.05,0-9.4,2.71a8.86,8.86,0,0,0-3.34,7.25,7.1,7.1,0,0,0,2.84,6.12,29.7,29.7,0,0,0,8.39,3.85l9.21,3a26.58,26.58,0,0,1,9.71,5.55A12.17,12.17,0,0,1,606.4,259a17.7,17.7,0,0,1-1.32,6.68,16.22,16.22,0,0,1-3.91,5.74,19.93,19.93,0,0,1-6.31,4,22.44,22.44,0,0,1-8.51,1.51,21.61,21.61,0,0,1-5.11-.57q-2.33-.57-4.29-1.2t-3.59-1.2a9.32,9.32,0,0,0-3-.57,3,3,0,0,0-2,.57,5.24,5.24,0,0,0-1,1.2h-1.39V257.46Z" transform="translate(-147 -183.94)"/>
    <path class="cls-1" d="M379.67,368.24a36.27,36.27,0,0,1-1.45,4,18.26,18.26,0,0,1-3.4,5.17,20.63,20.63,0,0,1-6.31,4.54,23.34,23.34,0,0,1-10.28,2,35.42,35.42,0,0,1-10-1.51,28.06,28.06,0,0,1-9.46-4.85,25.13,25.13,0,0,1-7-8.76,29.68,29.68,0,0,1-2.71-13.37,28.14,28.14,0,0,1,2.33-11.48,29.42,29.42,0,0,1,6.31-9.21,28.81,28.81,0,0,1,9.33-6.12,29.7,29.7,0,0,1,11.41-2.21,31.46,31.46,0,0,1,7,.82,23.64,23.64,0,0,1,6.56,2.52,15.54,15.54,0,0,1,4.92,4.41,11,11,0,0,1,2,6.62,5.89,5.89,0,0,1-1.7,4.35,6.57,6.57,0,0,1-4.85,1.7,9.29,9.29,0,0,1-4.1-.95,3.29,3.29,0,0,1-2-3.21,13.4,13.4,0,0,1,.88-4.29,13.21,13.21,0,0,0,.88-4.16,4.9,4.9,0,0,0-2.9-4.48,13.78,13.78,0,0,0-6.68-1.58,25.17,25.17,0,0,0-5.74.69,10.46,10.46,0,0,0-5.42,3.47,21.31,21.31,0,0,0-4,8.32q-1.58,5.55-1.58,15.13A71.28,71.28,0,0,0,342.4,366a26.82,26.82,0,0,0,2.52,8.39,14.35,14.35,0,0,0,5,5.67,15.2,15.2,0,0,0,8.39,2.08,22.09,22.09,0,0,0,9.14-1.64,16.79,16.79,0,0,0,5.67-4,17.22,17.22,0,0,0,3.09-4.73q1-2.39,1.51-3.91Z" transform="translate(-147 -183.94)"/>
    <path class="cls-1" d="M444.36,380.72a17.27,17.27,0,0,1-3.91,2.21,14.43,14.43,0,0,1-5.55.95q-6.05,0-8.76-2.58a13.71,13.71,0,0,1-3.72-7.25h-0.25q-0.51,1.14-1.39,2.84a11.27,11.27,0,0,1-2.71,3.28,15,15,0,0,1-4.85,2.65,23.4,23.4,0,0,1-7.69,1.07,24.37,24.37,0,0,1-8.45-1.2,13.74,13.74,0,0,1-4.92-3,8.58,8.58,0,0,1-2.33-4,16.51,16.51,0,0,1-.57-4.1,12.54,12.54,0,0,1,1.77-7.06,13.08,13.08,0,0,1,4.6-4.22,30.5,30.5,0,0,1,6.31-2.59q3.47-1,7-2.14,4.16-1.39,6.87-2.4a12.15,12.15,0,0,0,4.22-2.46,7.53,7.53,0,0,0,2.08-3.66,25.14,25.14,0,0,0,.57-6,34.82,34.82,0,0,0-.38-5.42,11.51,11.51,0,0,0-1.39-4.1A6.45,6.45,0,0,0,418,329a12.1,12.1,0,0,0-5-.88,14.5,14.5,0,0,0-6.87,1.45,5,5,0,0,0-2.71,4.73,23.58,23.58,0,0,0,.38,4.22,19.1,19.1,0,0,1,.38,3.09,3.93,3.93,0,0,1-1.26,3,5.11,5.11,0,0,1-3.66,1.2q-4.16,0-5.17-1.51a6.91,6.91,0,0,1-1-3.91,11.69,11.69,0,0,1,1.26-5.3A13.35,13.35,0,0,1,398,330.6a18.51,18.51,0,0,1,6.18-3.09,29.17,29.17,0,0,1,8.51-1.13,28.17,28.17,0,0,1,9.71,1.45,16.8,16.8,0,0,1,6.3,3.91,14.23,14.23,0,0,1,3.41,5.55,20.81,20.81,0,0,1,1,6.49v31.4q0,3.66,1.13,4.92a4.19,4.19,0,0,0,3.28,1.26,9.15,9.15,0,0,0,2.9-.5,10.6,10.6,0,0,0,2.9-1.51Zm-22.07-29.51H422q-0.25,1.64-4.16,3.28l-9.46,3.78a13.79,13.79,0,0,0-6.18,4.6,12.25,12.25,0,0,0-2.14,7.38,21.21,21.21,0,0,0,.38,3.91,10,10,0,0,0,1.39,3.59,7.68,7.68,0,0,0,2.84,2.58,9.72,9.72,0,0,0,4.73,1,11.73,11.73,0,0,0,6.75-1.77,11.53,11.53,0,0,0,3.91-4.41,18.63,18.63,0,0,0,1.77-5.74,39.86,39.86,0,0,0,.44-5.61V351.21Z" transform="translate(-147 -183.94)"/>
    <path class="cls-1" d="M451.8,364.46h1.39a46.74,46.74,0,0,0,2.27,6.12,21.61,21.61,0,0,0,3.72,5.67,18.3,18.3,0,0,0,5.74,4.22,18.74,18.74,0,0,0,8.2,1.64,11.37,11.37,0,0,0,7.19-2.46q3.15-2.46,3.15-8,0-4.79-2.46-6.75a19.27,19.27,0,0,0-5.74-3.09l-9.84-3.41q-1.89-.63-4.1-1.58a14.86,14.86,0,0,1-4.1-2.65,12.92,12.92,0,0,1-3.09-4.35,16.6,16.6,0,0,1-1.2-6.81,15.54,15.54,0,0,1,1.39-6.56,16.72,16.72,0,0,1,9.52-8.83,20.38,20.38,0,0,1,7.25-1.26,18.49,18.49,0,0,1,4.48.44q1.7,0.44,3,.88t2.27,0.88a5.91,5.91,0,0,0,2.4.44,2.2,2.2,0,0,0,2-1h1.39v14.38h-1.39a55,55,0,0,0-2-5.36,21.49,21.49,0,0,0-2.71-4.6,11,11,0,0,0-3.91-3.15,12.41,12.41,0,0,0-5.49-1.14q-6.05,0-9.4,2.71a8.86,8.86,0,0,0-3.34,7.25,7.11,7.11,0,0,0,2.84,6.12,29.7,29.7,0,0,0,8.39,3.85l9.21,3a26.58,26.58,0,0,1,9.71,5.55,12.17,12.17,0,0,1,3.78,9.33,17.7,17.7,0,0,1-1.32,6.68,16.22,16.22,0,0,1-3.91,5.74,19.94,19.94,0,0,1-6.31,4,22.44,22.44,0,0,1-8.51,1.51,21.61,21.61,0,0,1-5.11-.57q-2.33-.57-4.29-1.2t-3.59-1.2a9.32,9.32,0,0,0-3-.57,3,3,0,0,0-2,.57,5.25,5.25,0,0,0-1,1.2H451.8V364.46Z" transform="translate(-147 -183.94)"/>
    <path class="cls-1" d="M498.08,328h9.71V311.74q1,0.38,1.89.63a12.42,12.42,0,0,0,3,.25,10.81,10.81,0,0,0,3.28-.44,8.22,8.22,0,0,0,2.65-1.45V328h17.91v1.77H518.63V371a19.57,19.57,0,0,0,.69,5.74,8.63,8.63,0,0,0,1.83,3.4,5.46,5.46,0,0,0,2.46,1.58,9.39,9.39,0,0,0,2.58.38,8.87,8.87,0,0,0,7.13-3.22,15.57,15.57,0,0,0,3.47-7.38l1.77,0.63a29.31,29.31,0,0,1-1.13,3.66,12.76,12.76,0,0,1-2.33,3.85,12.26,12.26,0,0,1-4.1,3,14.69,14.69,0,0,1-6.31,1.2q-9.46,0-13.18-3.66t-3.72-10.34v-40.1h-9.71V328Z" transform="translate(-147 -183.94)"/>
    <path class="cls-1" d="M541.46,380.34h9.71V293h-9.71v-1.77H562v89.16h9.71v1.77H541.46v-1.77Z" transform="translate(-147 -183.94)"/>
    <path class="cls-1" d="M591.14,350.84q0,1.26-.06,2.58T591,356.76a78.72,78.72,0,0,0,.5,8.7,26.07,26.07,0,0,0,2.21,8.2,15.25,15.25,0,0,0,5,6.05q3.34,2.4,8.89,2.4a22.09,22.09,0,0,0,9.14-1.64,16.8,16.8,0,0,0,5.67-4,17.23,17.23,0,0,0,3.09-4.73q1-2.39,1.51-3.91l1.89,0.38a36,36,0,0,1-1.45,4,18.26,18.26,0,0,1-3.4,5.17,20.63,20.63,0,0,1-6.31,4.54,23.34,23.34,0,0,1-10.28,2,32.87,32.87,0,0,1-11.67-2,26.62,26.62,0,0,1-9.27-5.8,26.19,26.19,0,0,1-6.05-9,30.48,30.48,0,0,1-2.14-11.67,27.49,27.49,0,0,1,2.21-10.78,30.3,30.3,0,0,1,15.07-15.76,25,25,0,0,1,18.66-1.2,22.3,22.3,0,0,1,7.5,4.1,22.56,22.56,0,0,1,5.8,7.5,25.82,25.82,0,0,1,2.33,11.6H591.14Zm26-1.77a23.43,23.43,0,0,0,.25-3.28v-3.15a25.47,25.47,0,0,0-.82-7.06,11.53,11.53,0,0,0-2.27-4.41,8,8,0,0,0-3.53-2.33,14.09,14.09,0,0,0-4.48-.69,13.3,13.3,0,0,0-7.06,1.7,12.53,12.53,0,0,0-4.41,4.6,23.67,23.67,0,0,0-2.46,6.68,52.14,52.14,0,0,0-1.07,7.94h25.85Z" transform="translate(-147 -183.94)"/>
  </g>
  <g>
    <path class="cls-2" d="M336.78,418c0-2,0-5.16,0-5.49-0.06-.51-0.39-0.66-1-0.66h-1.56a0.17,0.17,0,0,1-.18-0.21v-0.75c0-.18.06-0.24,0.18-0.24,0.36,0,1.44.09,4.44,0.09,0.54,0,2.28-.09,3.3-0.09,3.6,0,5.34.33,7.08,1.53a5.68,5.68,0,0,1,2.28,4.56c0,3.72-2.88,6.06-8,6.06a18.58,18.58,0,0,1-2.7-.12V424c0,1.44,0,5.52,0,5.91a0.9,0.9,0,0,0,.93,1h1.68c0.24,0,.24.12,0.24,0.21v0.69c0,0.18,0,.3-0.24.3-0.42,0-1.38-.09-4.62-0.09-2.64,0-3.84.09-4.14,0.09s-0.24-.12-0.24-0.21v-0.75c0-.18,0-0.24.18-0.24h1c1,0,1.26-.12,1.35-0.93,0-.3.09-5,0.09-8.46V418Zm3.78,3.6a7.67,7.67,0,0,0,2.16.24,5,5,0,0,0,3.6-2,5.58,5.58,0,0,0,.72-3.12,4.71,4.71,0,0,0-4.74-5,4.21,4.21,0,0,0-1.74.21v9.72Z" transform="translate(-147 -183.94)"/>
    <path class="cls-2" d="M375.12,423.75c-0.24.69-1.71,5-1.86,5.79a2.6,2.6,0,0,0-.06.63,1,1,0,0,0,1.08.72h1.26c0.24,0,.3.06,0.3,0.15v0.75a0.24,0.24,0,0,1-.24.3c-0.42,0-1.68-.09-3.78-0.09s-2.88.09-3.3,0.09c-0.18,0-.18-0.18-0.18-0.39v-0.57c0-.18.06-0.24,0.18-0.24h0.9a2.13,2.13,0,0,0,1.92-1.35c0.3-.54,2.46-5.94,3.36-8.46l2.94-7.86a1.53,1.53,0,0,0,.06-1,0.68,0.68,0,0,1-.18-0.36,0.31,0.31,0,0,1,.3-0.3,9.75,9.75,0,0,0,3-1.5,0.42,0.42,0,1,1,.81.24c0.54,1.86,2.88,8.58,3.42,10.5,0.72,2.34,2.64,7.92,3.06,8.73a2.26,2.26,0,0,0,1.92,1.38h1c0.18,0,.24.06,0.24,0.21v0.63a0.3,0.3,0,0,1-.3.36c-0.54,0-1.14-.09-4.44-0.09-2.52,0-3.54.09-4.2,0.09a0.3,0.3,0,0,1-.3-0.36v-0.6a0.2,0.2,0,0,1,.24-0.24H383c0.84,0,1.08-.3.9-1.11-0.24-1.08-1.44-4.92-1.8-6h-7Zm6.66-1.2c-0.3-.87-2.34-7.71-2.52-8.31a0.67,0.67,0,0,0-.3-0.54,0.44,0.44,0,0,0-.39.39c-0.12.39-2.82,7.77-3,8.46h6.24Z" transform="translate(-147 -183.94)"/>
    <path class="cls-2" d="M417.81,424.14c0,1.8.06,5.16,0.12,5.61a1.07,1.07,0,0,0,.78,1.14h1.5a0.2,0.2,0,0,1,.24.21v0.72c0,0.21-.09.27-0.33,0.27s-1-.09-4.11-0.09c-2.94,0-3.66.09-4,.09a0.22,0.22,0,0,1-.24-0.27v-0.69a0.19,0.19,0,0,1,.18-0.24h1a0.92,0.92,0,0,0,1.14-1c0.06-3,.06-5.82.06-8.64v-7.89c0-1-.42-1.5-1-1.5h-1.17a0.17,0.17,0,0,1-.21-0.18v-0.81a0.18,0.18,0,0,1,.21-0.21c0.21,0,1.17.09,4.11,0.09,1.68,0,4.44-.09,5.34-0.09a8.07,8.07,0,0,1,5.46,1.89,4.6,4.6,0,0,1,1.62,3.36c0,3.78-2.28,5.34-5.58,5.88v0.12a3.91,3.91,0,0,1,1.8,1.38c0.36,0.48,2.22,3.3,2.46,3.66a41.75,41.75,0,0,0,2.55,3.42A3.15,3.15,0,0,0,432,431a0.2,0.2,0,0,1,.24.21v0.63c0,0.21-.06.3-0.24,0.3s-1-.09-2.94-0.09c-0.84,0-2,.06-2.64.09a7.9,7.9,0,0,1-1.32-1.71c-0.54-.84-1.71-3-2-3.48s-1.14-1.92-1.62-2.58c-0.75-1-1.44-1.86-2.7-1.86l-1,.06v1.62Zm0.06-2.7a8.27,8.27,0,0,0,1.14.12,5.25,5.25,0,0,0,5.64-5.16,4.72,4.72,0,0,0-1.32-3.36,5.74,5.74,0,0,0-4-1.29,2.12,2.12,0,0,0-1.08.18,1,1,0,0,0-.36.87Z" transform="translate(-147 -183.94)"/>
    <path class="cls-2" d="M459.18,412h-0.84a16.59,16.59,0,0,0-4.38.42c-1,.42-2.1,2.4-2.67,3.42-0.09.15-.18,0.27-0.33,0.21l-0.6-.21a0.23,0.23,0,0,1-.12-0.3l1.44-5.52c0.06-.42.24-0.54,0.36-0.54a0.72,0.72,0,0,1,.48.3,2.69,2.69,0,0,0,2,.78c1.62,0.06,2.88.18,5.82,0.18H462c3.3,0,4.56-.12,5.94-0.18a5.51,5.51,0,0,0,2.16-.78,1,1,0,0,1,.54-0.3c0.18,0,.24.12,0.3,0.48,0.06,0.54.66,4.26,0.9,5.7,0,0.18,0,.24-0.12.27l-0.6.21c-0.12,0-.18-0.06-0.27-0.24a11.78,11.78,0,0,0-2.37-3.36c-0.84-.48-3.54-0.54-4.62-0.54H463v16c0,2.28.3,2.88,1,2.88h1.74a0.22,0.22,0,0,1,.18.27v0.63a0.26,0.26,0,0,1-.3.3c-0.3,0-1.26-.09-4.5-0.09-3.06,0-4.32.09-4.74,0.09-0.18,0-.24-0.06-0.24-0.27v-0.69a0.2,0.2,0,0,1,.21-0.24h1.71a0.9,0.9,0,0,0,1-.81c0.09-.78.09-10,0.09-10.56V412Z" transform="translate(-147 -183.94)"/>
    <path class="cls-2" d="M496.71,418.44c0,5.1.24,9.3,0.3,10.23,0.06,1.5.42,2.22,1.5,2.22h0.78c0.24,0,.24.12,0.24,0.27v0.69c0,0.18,0,.24-0.24.24S497.19,432,496,432c-0.78,0-2.82.09-3.12,0.09-0.12,0-.18-0.06-0.18-0.27v-0.75a0.19,0.19,0,0,1,.18-0.18h1c0.78,0,1.2-.66,1.35-2.49,0-.54.21-4.74,0.21-9.54v-3.81c0-1.8-1-3.18-2.34-3.18h-1a0.2,0.2,0,0,1-.18-0.21v-0.81a0.16,0.16,0,0,1,.18-0.18l0.93,0.06c0.54,0,1.35,0,2.67,0,0.51,0,1,0,1.32-.06s0.66,0,.84,0a0.89,0.89,0,0,1,.72.27c0.3,0.3,6.18,7.68,6.78,8.52,0.42,0.48,5.1,6.3,5.58,6.9h0.12v-3.12c0-2.64,0-4.14-.06-5.64-0.06-1.14-.18-4.08-0.33-4.59a1.61,1.61,0,0,0-1.59-1.14h-1c-0.18,0-.18-0.12-0.18-0.27v-0.69c0-.18,0-0.24.24-0.24s1.32,0.09,3.36.09c1.8,0,2.52-.09,2.88-0.09s0.3,0.12.3,0.21v0.69c0,0.18-.06.3-0.18,0.3h-0.84c-0.6,0-.9.48-1,1.59-0.15,2-.45,7.08-0.45,10.14v7.92c0,0.42,0,.84-0.36.84a1.5,1.5,0,0,1-1-.48c-0.24-.3-1.86-2.16-3.72-4.38-2.1-2.58-4.44-5.4-4.8-5.88s-5.22-6.42-5.58-6.84h-0.18v3.66Z" transform="translate(-147 -183.94)"/>
    <path class="cls-2" d="M542.85,423.3c0,1.62.09,4.56,0.09,5.1,0,1.56.54,2.16,1.2,2.34a9.54,9.54,0,0,0,2.34.24c0.54,0,1.92-.06,2.52-0.12a5.11,5.11,0,0,0,2.46-1c0.54-.48,2.22-2.46,2.79-3.18a0.24,0.24,0,0,1,.33-0.12l0.48,0.3a0.22,0.22,0,0,1,.06.3l-1.44,4.5a0.63,0.63,0,0,1-.66.45c-0.15,0-.81,0-2.67-0.06s-5,0-10,0c-1.11,0-1.92,0-2.55,0s-1,.06-1.29.06a0.2,0.2,0,0,1-.24-0.24v-0.72c0-.18.06-0.24,0.3-0.24h1c1.38,0,1.5-.18,1.5-1.29V419.52c0-2.46-.06-6.18-0.12-6.6a1.06,1.06,0,0,0-1.32-1.05h-1.14a0.17,0.17,0,0,1-.18-0.21v-0.78c0-.15,0-0.21.18-0.21,0.66,0,1.74.12,4.2,0.09h0.84l9.54-.06c0.48,0,1,0,1.2,0a0.21,0.21,0,0,1,.24.18c0.12,0.39,1.26,4.47,1.38,4.77s0,0.27-.09.33l-0.54.24A0.23,0.23,0,0,1,553,416a28.29,28.29,0,0,0-3.3-3.36,5.15,5.15,0,0,0-2.28-.78l-4.56-.12-0.06,8.67a33.69,33.69,0,0,0,3.42-.15,1.67,1.67,0,0,0,1.38-1.08,4.8,4.8,0,0,0,.48-1.68,0.22,0.22,0,0,1,.24-0.24l0.78,0.06a0.17,0.17,0,0,1,.18.24c-0.06.48-.06,2.46-0.06,3.24,0,1.2.12,2.64,0.18,3.3,0,0.15-.06.18-0.24,0.21l-0.66.12c-0.12,0-.18,0-0.24-0.21a12.67,12.67,0,0,0-.48-1.5,1.83,1.83,0,0,0-1.5-1.08c-1.08-.12-2.52-0.18-3.48-0.18Z" transform="translate(-147 -183.94)"/>
    <path class="cls-2" d="M581.82,424.14c0,1.8.06,5.16,0.12,5.61a1.07,1.07,0,0,0,.78,1.14h1.5a0.2,0.2,0,0,1,.24.21v0.72c0,0.21-.09.27-0.33,0.27s-1-.09-4.11-0.09c-2.94,0-3.66.09-4,.09a0.22,0.22,0,0,1-.24-0.27v-0.69a0.19,0.19,0,0,1,.18-0.24h1a0.92,0.92,0,0,0,1.14-1c0.06-3,.06-5.82.06-8.64v-7.89c0-1-.42-1.5-1-1.5h-1.17a0.17,0.17,0,0,1-.21-0.18v-0.81a0.18,0.18,0,0,1,.21-0.21c0.21,0,1.17.09,4.11,0.09,1.68,0,4.44-.09,5.34-0.09a8.07,8.07,0,0,1,5.46,1.89,4.59,4.59,0,0,1,1.62,3.36c0,3.78-2.28,5.34-5.58,5.88v0.12a3.91,3.91,0,0,1,1.8,1.38c0.36,0.48,2.22,3.3,2.46,3.66a41.75,41.75,0,0,0,2.55,3.42A3.15,3.15,0,0,0,596,431a0.2,0.2,0,0,1,.24.21v0.63c0,0.21-.06.3-0.24,0.3S595,432,593,432c-0.84,0-2,.06-2.64.09a7.9,7.9,0,0,1-1.32-1.71c-0.54-.84-1.71-3-2-3.48s-1.14-1.92-1.62-2.58c-0.75-1-1.44-1.86-2.7-1.86l-1,.06v1.62Zm0.06-2.7a8.27,8.27,0,0,0,1.14.12,5.25,5.25,0,0,0,5.64-5.16,4.72,4.72,0,0,0-1.32-3.36,5.74,5.74,0,0,0-4-1.29,2.12,2.12,0,0,0-1.08.18,1,1,0,0,0-.36.87Z" transform="translate(-147 -183.94)"/>
    <path class="cls-2" d="M617.94,425.31c0.12,0,.18.06,0.18,0.24a6.94,6.94,0,0,0,1.14,3.42,4.66,4.66,0,0,0,4,2.16c1.62,0,3.9-1,3.9-3.51,0-2.76-1.26-3.66-4.44-4.86a14.19,14.19,0,0,1-4.38-2.52,5.71,5.71,0,0,1-1.5-4.29,5.09,5.09,0,0,1,2.1-4.2,6.12,6.12,0,0,1,4.26-1.44,9.46,9.46,0,0,1,3.78.72,0.52,0.52,0,0,0,.63-0.09l0.39-.39a0.54,0.54,0,0,1,.42-0.18c0.18,0,.24.18,0.24,0.48,0,0.48.48,4.68,0.48,5a0.2,0.2,0,0,1-.18.21l-0.48.15a0.23,0.23,0,0,1-.3-0.18,8.62,8.62,0,0,0-1.86-3.18,3.94,3.94,0,0,0-3.12-1.26,3.2,3.2,0,0,0-3.36,3,3.65,3.65,0,0,0,.84,2.7,10,10,0,0,0,3.66,1.86,9.44,9.44,0,0,1,4.32,2.34,5.76,5.76,0,0,1,1.5,4.29c0,3.66-2.4,6.66-6.36,6.66a7.83,7.83,0,0,1-5.1-1.44,1.54,1.54,0,0,0-.72-0.36,0.87,0.87,0,0,0-.48.54,0.54,0.54,0,0,1-.54.36,0.39,0.39,0,0,1-.36-0.48c0.06-.36.48-5.22,0.54-5.58,0-.18.06-0.24,0.18-0.24Z" transform="translate(-147 -183.94)"/>
  </g>
  <rect class="cls-2" x="16.14" y="49.63" width="96.83" height="16.14"/>
  <polygon class="cls-2" points="0 12.64 129.1 12.64 96.83 44.92 32.28 44.92 0 12.64"/>
  <polygon class="cls-2" points="56.34 233.15 72.76 233.15 80.19 248 129.1 248 96.83 70.48 32.28 70.48 0 248 48.91 248 56.34 233.15"/>
  <polygon class="cls-2" points="0 0 0 7.93 32.28 7.93 24.35 0 0 0"/>
  <polygon class="cls-2" points="52.38 0 48.41 7.93 80.69 7.93 76.73 0 52.38 0"/>
  <polygon class="cls-2" points="104.75 0 96.83 7.93 129.1 7.93 129.1 0 104.75 0"/>
</svg>
