<svg id="Layer_1" data-name="Layer 1" xmlns="http://www.w3.org/2000/svg" width="180.63" height="346.98" viewBox="0 0 180.63 346.98">
  <defs>
    <style>
      .cls-1 {
        fill: #e3ba79;
      }
    </style>
  </defs>
  <title>bcp-mark</title>
  <rect class="cls-1" x="22.58" y="69.44" width="135.47" height="22.58"/>
  <polygon class="cls-1" points="0 17.69 180.63 17.69 135.47 62.84 45.16 62.84 0 17.69"/>
  <polygon class="cls-1" points="78.83 326.19 101.8 326.19 112.19 346.98 180.63 346.98 135.47 98.61 45.16 98.61 0 346.98 68.44 346.98 78.83 326.19"/>
  <polygon class="cls-1" points="0 0 0 11.09 45.16 11.09 34.07 0 0 0"/>
  <polygon class="cls-1" points="73.28 0 67.74 11.09 112.89 11.09 107.35 0 73.28 0"/>
  <polygon class="cls-1" points="135.47 11.09 180.63 11.09 180.63 0 146.56 0 135.47 11.09"/>
</svg>
