<?xml version="1.0" encoding="utf-8"?>
<!-- Generator: Adobe Illustrator 17.0.0, SVG Export Plug-In . SVG Version: 6.00 Build 0)  -->
<!DOCTYPE svg PUBLIC "-//W3C//DTD SVG 1.1//EN" "http://www.w3.org/Graphics/SVG/1.1/DTD/svg11.dtd">
<svg version="1.1" xmlns="http://www.w3.org/2000/svg" xmlns:xlink="http://www.w3.org/1999/xlink" x="0px" y="0px"
	 width="2182.78px" height="520.927px" viewBox="0 0 2182.78 520.927" enable-background="new 0 0 2182.78 520.927"
	 xml:space="preserve">
<g id="Layer_2">
</g>
<g id="Layer_1">
	<path fill="#F15A29" d="M147.529,0L0.17,59.344L0,337.949l30,0.018l0.037-61.146l102.492-41.274v139.315h30V235.547L264.77,276.72
		l-0.037,61.229l30,0.018l0.168-278.618L147.529,0z M30.132,121.328l102.397-41.238v30.24L30.113,151.575L30.132,121.328z
		 M30.108,160.201l102.421-41.247v30.24L30.09,190.448L30.108,160.201z M30.085,199.075l102.445-41.256v30.24L30.066,229.323
		L30.085,199.075z M162.529,157.819l102.287,41.193l-0.018,30.233l-102.269-41.186V157.819z M162.529,149.195v-30.24l102.311,41.202
		l-0.018,30.232L162.529,149.195z M162.529,110.331v-30.24l102.334,41.212l-0.018,30.232L162.529,110.331z M264.869,112.68
		L162.529,71.467V38.382l102.359,41.221L264.869,112.68z M132.529,38.382v33.085L30.137,112.702l0.02-33.093L132.529,38.382z
		 M30.042,268.195l0.018-30.247l102.468-41.266v30.239L30.042,268.195z M162.529,226.922v-30.24l102.264,41.183l-0.018,30.233
		L162.529,226.922z"/>
	<path fill="#1C75BC" d="M572.312,271.59l69.163-209.86h75.092v3.952l-31.223,1.976v264.795l31.223,1.977v3.952H611.438v-3.952
		l31.222-1.977V84.257h-3.952l-82.6,256.102h-7.905L446.632,94.928h-3.952l1.976,224.483l42.684,15.019v3.952h-89.319v-3.952
		l40.708-15.019V67.658l-40.708-1.976v-3.952h83.786l86.553,209.86H572.312z"/>
	<path fill="#1C75BC" d="M815.759,332.453l31.222,1.977v3.952H741.854v-3.952l31.222-1.977V144.725h-27.27v-3.952l66.001-3.952
		h3.952V332.453z M794.417,52.244c15.414,0,27.665,12.647,27.665,28.061c0,15.018-12.251,27.665-27.665,27.665
		s-27.665-12.647-27.665-27.665C766.752,64.891,779.004,52.244,794.417,52.244z"/>
	<path fill="#1C75BC" d="M934.319,332.453l31.222,1.977v3.952H860.413v-3.952l31.222-1.977V57.777h-27.27v-3.952l66.001-3.953h3.952
		V332.453z"/>
	<path fill="#1C75BC" d="M1052.878,332.453l31.223,1.977v3.952H978.973v-3.952l31.222-1.977V57.777h-27.27v-3.952l66.001-3.953
		h3.952V332.453z"/>
	<path fill="#1C75BC" d="M1125.593,223.769c0.396,52.564,28.851,90.109,69.559,90.109c26.084,0,50.982-16.994,60.468-34.778h3.952
		c-7.904,32.803-37.15,63.234-78.648,63.234c-62.444,0-96.828-48.611-96.828-101.966c0-67.188,50.192-103.547,99.595-103.547
		c37.546,0,83.786,19.761,71.93,86.948H1125.593z M1126.383,219.816l86.158-1.976c11.065-55.331-8.695-77.068-30.827-77.068
		C1152.072,140.773,1129.94,165.671,1126.383,219.816z"/>
	<path fill="#1C75BC" d="M1499.07,334.43v3.952h-97.224v-3.952l23.318-1.977V193.337c0-22.923-7.114-41.893-32.804-41.893
		c-16.204,0-28.061,7.114-50.983,30.827v150.182l31.223,1.977v3.952h-105.128v-3.952l31.223-1.977V144.725h-27.271v-3.952
		l66.001-3.952h3.952v35.569h3.952c21.737-23.318,42.684-35.569,71.535-35.569c26.479,0,50.982,15.809,50.982,59.283v136.35
		L1499.07,334.43z"/>
	<path fill="#1C75BC" d="M1744.102,334.43v3.952h-97.224v-3.952l23.318-1.977V193.337c0-22.923-7.114-41.893-32.804-41.893
		c-16.204,0-28.061,7.114-50.983,30.827v150.182l31.223,1.977v3.952h-105.128v-3.952l31.223-1.977V144.725h-27.271v-3.952
		l66.001-3.952h3.952v35.569h3.952c21.737-23.318,42.684-35.569,71.535-35.569c26.479,0,50.982,15.809,50.982,59.283v136.35
		L1744.102,334.43z"/>
	<path fill="#1C75BC" d="M1831.44,332.453l31.223,1.977v3.952h-105.128v-3.952l31.223-1.977V144.725h-27.271v-3.952l66.001-3.952
		h3.952V332.453z M1810.1,52.244c15.413,0,27.665,12.647,27.665,28.061c0,15.018-12.252,27.665-27.665,27.665
		c-15.414,0-27.666-12.647-27.666-27.665C1782.434,64.891,1794.686,52.244,1810.1,52.244z"/>
	<path fill="#1C75BC" d="M1990.312,320.597h-3.952c-20.156,13.833-35.569,21.737-59.282,21.737
		c-29.642,0-45.846-18.575-45.846-42.288c0-25.294,24.108-39.127,56.517-50.588l52.563-17.785v-48.612
		c0-25.294-10.275-39.521-37.94-39.521c-14.623,0-33.989,7.509-44.265,16.204v3.952c34.779-0.79,32.408,41.894,2.767,41.894
		c-12.252,0-21.737-9.881-21.737-21.737c0-23.318,35.965-47.031,79.044-47.031c34.779,0,64.815,13.042,64.815,51.378v146.23h31.223
		v3.952l-69.954,3.952h-3.952V320.597z M1990.312,235.625l-33.988,12.647c-24.504,8.694-32.804,21.342-32.804,40.707
		c0,21.737,15.019,33.594,33.989,33.594c11.461,0,21.342-1.977,32.803-7.904V235.625z"/>
	<path fill="#1C75BC" d="M2151.558,332.453l31.223,1.977v3.952h-105.128v-3.952l31.223-1.977V57.777h-27.271v-3.952l66.001-3.953
		h3.952V332.453z"/>
	<path fill="#1C75BC" d="M737.136,489.547v-89.465l-9.481-0.668v-1.335h36.587v1.335l-9.48,0.668v89.465l9.48,0.668v1.335h-36.587
		v-1.335L737.136,489.547z"/>
	<path fill="#1C75BC" d="M851.037,490.215v1.335H817.12v-1.335l6.81-0.668v-47.804c0-6.943-2.27-12.552-9.614-12.552
		c-5.208,0-9.213,2.938-15.489,9.614v50.741l9.48,0.668v1.335H771.72v-1.335l9.48-0.668V426.12h-8.146v-1.335l24.436-1.336h1.335
		v12.019h1.335c7.077-7.879,14.154-12.019,23.902-12.019c8.946,0,17.492,5.342,17.492,20.03v46.067L851.037,490.215z"/>
	<path fill="#1C75BC" d="M896.908,476.061l13.887-46.602l-11.216-3.339v-1.335h25.904v1.335l-12.685,3.339l-19.362,62.759h-10.949
		l-26.706-65.43l-6.944-0.668v-1.335h36.587v1.335l-9.48,0.668l19.628,49.272H896.908z"/>
	<path fill="#1C75BC" d="M940.639,452.826c0.4,18.294,10.549,28.309,22.433,28.309c9.213,0,16.691-5.608,19.629-10.95h1.335
		c-2.67,11.617-12.285,22.7-27.507,22.7c-21.632,0-33.382-16.29-33.382-34.316c0-23.368,17.759-35.119,34.451-35.119
		c12.685,0,29.109,6.01,25.104,29.377H940.639z M940.906,451.491l24.97-0.668c4.139-19.361-2.537-26.038-8.947-26.038
		C948.116,424.785,941.707,432.396,940.906,451.491z"/>
	<path fill="#1C75BC" d="M994.184,486.609l-0.801,6.275h-1.335v-20.964h1.335c2.804,6.276,5.475,10.949,8.413,14.288
		c3.071,3.338,6.409,5.207,10.549,5.207c8.012,0,12.285-5.875,12.285-12.151c0-6.943-4.941-10.815-14.688-15.089
		c-11.884-5.207-18.026-10.415-18.026-21.364c0-10.683,8.279-19.362,24.436-19.362c5.875,0,12.285,1.603,19.495,6.143l0.801-6.143
		h1.335v20.965h-1.335c-2.938-6.943-5.875-11.751-9.08-14.822c-3.071-3.204-6.409-4.673-10.148-4.673
		c-5.742,0-10.416,4.54-10.416,10.147c0,7.745,6.276,11.217,12.018,13.62c14.288,6.143,22.033,11.217,22.033,23.234
		c0,12.686-11.083,20.964-26.039,20.964C1007.804,492.885,1000.86,490.749,994.184,486.609z"/>
	<path fill="#1C75BC" d="M1073.899,475.126c0,11.35,2.938,14.021,8.546,14.021c2.671,0,5.074-0.668,8.947-2.271v1.336
		c-5.875,2.938-13.353,4.673-20.03,4.673c-9.347,0-15.089-4.673-15.089-16.023v-50.073h-8.946v-1.336l8.946-0.667l16.291-16.023
		h1.335v16.023h17.493v2.003h-17.493V475.126z"/>
	<path fill="#1C75BC" d="M1165.367,436.803h1.068c6.811-9.08,13.754-13.354,23.501-13.354c8.946,0,17.493,5.342,17.493,20.03v46.067
		l9.48,0.668v1.335h-33.917v-1.335l6.81-0.668v-47.804c0-6.943-2.002-12.552-9.48-12.552c-4.674,0-8.68,2.938-14.287,10.282v50.073
		l9.48,0.668v1.335h-33.917v-1.335l6.81-0.668v-47.804c0-6.943-2.003-12.552-9.48-12.552c-4.673,0-8.012,2.938-14.288,9.614v50.741
		l9.48,0.668v1.335h-36.587v-1.335l9.48-0.668V426.12h-8.146v-1.335l24.436-1.336h1.335v12.019h1.335
		c6.676-7.879,12.819-12.019,22.566-12.019C1155.887,423.449,1163.098,427.188,1165.367,436.803z"/>
	<path fill="#1C75BC" d="M1238.408,452.826c0.4,18.294,10.549,28.309,22.433,28.309c9.214,0,16.69-5.608,19.629-10.95h1.335
		c-2.67,11.617-12.285,22.7-27.507,22.7c-21.632,0-33.382-16.29-33.382-34.316c0-23.368,17.759-35.119,34.45-35.119
		c12.685,0,29.109,6.01,25.104,29.377H1238.408z M1238.675,451.491l24.97-0.668c4.14-19.361-2.537-26.038-8.946-26.038
		C1245.885,424.785,1239.477,432.396,1238.675,451.491z"/>
	<path fill="#1C75BC" d="M1367.798,490.215v1.335h-33.917v-1.335l6.811-0.668v-47.804c0-6.943-2.271-12.552-9.615-12.552
		c-5.207,0-9.213,2.938-15.488,9.614v50.741l9.48,0.668v1.335h-36.588v-1.335l9.48-0.668V426.12h-8.145v-1.335l24.436-1.336h1.336
		v12.019h1.335c7.077-7.879,14.153-12.019,23.901-12.019c8.946,0,17.492,5.342,17.492,20.03v46.067L1367.798,490.215z"/>
	<path fill="#1C75BC" d="M1397.04,475.126c0,11.35,2.938,14.021,8.546,14.021c2.67,0,5.074-0.668,8.946-2.271v1.336
		c-5.875,2.938-13.354,4.673-20.029,4.673c-9.348,0-15.089-4.673-15.089-16.023v-50.073h-8.947v-1.336l8.947-0.667l16.29-16.023
		h1.336v16.023h17.492v2.003h-17.492V475.126z"/>
	<path fill="#1C75BC" d="M1499.056,396.744c13.353,0,24.97,4.673,30.312,8.012l0.667,22.299h-1.335l-8.012-15.222
		c-2.804-5.876-10.949-13.754-19.896-13.754c-18.16,0-28.442,16.023-28.442,46.735c0,29.377,10.683,46.735,26.706,46.735
		c6.409,0,12.018-2.003,16.023-4.94v-31.78l-9.347-0.668v-1.335h34.317v1.335l-7.211,0.668v27.374
		c-5.342,4.006-20.431,10.682-33.783,10.682c-27.106,0-45.801-20.029-45.801-48.07S1471.949,396.744,1499.056,396.744z"/>
	<path fill="#1C75BC" d="M1574.632,441.743c4.674-10.683,10.95-18.294,18.962-18.294c4.673,0,9.08,3.205,9.08,8.413
		c0,12.018-17.226,12.418-18.027-0.668h-1.335c-3.338,2.938-6.677,9.347-10.015,17.893v40.46l9.48,0.668v1.335h-36.587v-1.335
		l9.48-0.668V426.12h-8.146v-1.335l24.437-1.336h1.335v18.294H1574.632z"/>
	<path fill="#1C75BC" d="M1607.613,458.167c0-21.498,15.489-34.718,33.783-34.718c18.293,0,33.782,13.22,33.782,34.718
		c0,21.499-15.489,34.718-33.782,34.718C1623.103,492.885,1607.613,479.666,1607.613,458.167z M1626.708,458.167
		c0,20.431,3.872,33.383,14.688,33.383c10.815,0,14.688-12.952,14.688-33.383c0-20.43-4.006-33.382-14.688-33.382
		C1630.714,424.785,1626.708,437.737,1626.708,458.167z"/>
	<path fill="#1C75BC" d="M1679.185,426.12v-1.335l25.371-1.336h1.735v51.143c0,6.943,2.271,12.552,9.614,12.552
		c5.208,0,8.279-2.403,14.154-9.614V426.12h-9.48v-1.335l25.37-1.336h1.736v65.831h9.48v1.335l-25.771,2.27h-1.335v-12.018h-1.335
		c-6.276,7.745-12.819,12.018-22.566,12.018c-8.947,0-17.493-5.341-17.493-20.029V426.12H1679.185z"/>
	<path fill="#1C75BC" d="M1785.073,487.544v31.38l9.48,0.667v1.336h-36.587v-1.336l9.48-0.667V426.12h-8.145v-1.335l24.436-1.336
		h1.335v7.077h1.336c4.94-4.673,10.281-7.077,18.293-7.077c17.359,0,28.041,14.688,28.041,34.718
		c0,20.03-12.418,34.718-29.776,34.718c-5.342,0-10.282-0.667-16.558-5.341H1785.073z M1785.073,484.74
		c3.605,2.536,7.345,4.406,11.885,4.406c9.08,0,16.69-5.208,16.69-30.979c0-24.97-7.61-30.711-16.69-30.711
		c-4.54,0-8.68,2.938-11.885,5.875V484.74z"/>
</g>
</svg>
