<?xml version="1.0" encoding="utf-8"?>
<!DOCTYPE svg PUBLIC "-//W3C//DTD SVG 1.1//EN" "http://www.w3.org/Graphics/SVG/1.1/DTD/svg11.dtd">
<svg version="1.1" xmlns="http://www.w3.org/2000/svg" xmlns:xlink="http://www.w3.org/1999/xlink" x="0px" y="0px"
	 width="294.901px" height="374.861px" viewBox="0 0 294.901 374.861" enable-background="new 0 0 294.901 374.861"
	 xml:space="preserve">
<g id="Layer_2">
</g>
<g id="Layer_1">
	<path fill="#333" d="M147.529,0L0.17,59.344L0,337.949l30,0.018l0.037-61.146l102.492-41.274v139.315h30V235.547L264.77,276.72
		l-0.037,61.229l30,0.018l0.168-278.618L147.529,0z M30.132,121.328l102.397-41.238v30.24L30.113,151.575L30.132,121.328z
		 M30.108,160.201l102.421-41.247v30.24L30.09,190.448L30.108,160.201z M30.085,199.075l102.445-41.256v30.24L30.066,229.323
		L30.085,199.075z M162.529,157.819l102.287,41.193l-0.018,30.233l-102.269-41.186V157.819z M162.529,149.195v-30.24l102.311,41.202
		l-0.018,30.232L162.529,149.195z M162.529,110.331v-30.24l102.334,41.212l-0.018,30.232L162.529,110.331z M264.869,112.68
		L162.529,71.467V38.382l102.359,41.221L264.869,112.68z M132.529,38.382v33.085L30.137,112.702l0.02-33.093L132.529,38.382z
		 M30.042,268.195l0.018-30.247l102.468-41.266v30.239L30.042,268.195z M162.529,226.922v-30.24l102.264,41.183l-0.018,30.233
		L162.529,226.922z"/>
</g>
</svg>
